<?xml version="1.0" encoding="iso-8859-1"?>
<!-- Generator: Adobe Illustrator 19.0.0, SVG Export Plug-In . SVG Version: 6.00 Build 0)  -->
<svg version="1.1" id="Layer_1" xmlns="http://www.w3.org/2000/svg" xmlns:xlink="http://www.w3.org/1999/xlink" x="0px" y="0px"
	 viewBox="0 0 512 512" style="enable-background:new 0 0 512 512;" xml:space="preserve">
<g>
	<g>
		<g>
			<path d="M393.65,72.743h-46.809V16.624C346.841,7.443,339.398,0,330.217,0H181.783c-9.181,0-16.624,7.443-16.624,16.624v56.119
				H118.35c-9.181,0-16.624,7.443-16.624,16.624v406.009c0,9.181,7.443,16.624,16.624,16.624h275.3
				c9.181,0,16.624-7.443,16.624-16.624V89.367C410.274,80.186,402.832,72.743,393.65,72.743z M198.407,33.248h115.185v79.849
				H198.407V33.248z M290.521,478.752h-69.04v-39.908h69.04V478.752z M323.768,478.752V422.22c0-9.181-7.443-16.624-16.624-16.624
				H204.855c-9.181,0-16.624,7.443-16.624,16.624v56.532h-53.258V105.991h30.185v23.732c0,9.181,7.443,16.624,16.624,16.624h148.434
				c9.181,0,16.624-7.443,16.624-16.624v-23.732h30.185v372.761H323.768z"/>
			<path d="M193.937,161.038c-9.181,0-16.624,7.443-16.624,16.624v21.057c0,9.181,7.443,16.624,16.624,16.624
				s16.624-7.443,16.624-16.624v-21.057C210.561,168.481,203.118,161.038,193.937,161.038z"/>
			<path d="M256,161.038c-9.181,0-16.624,7.443-16.624,16.624v21.057c0,9.181,7.443,16.624,16.624,16.624
				s16.624-7.443,16.624-16.624v-21.057C272.624,168.481,265.181,161.038,256,161.038z"/>
			<path d="M318.063,161.038c-9.181,0-16.624,7.443-16.624,16.624v21.057c0,9.181,7.443,16.624,16.624,16.624
				c9.181,0,16.624-7.443,16.624-16.624v-21.057C334.688,168.481,327.244,161.038,318.063,161.038z"/>
			<path d="M193.937,243.05c-9.181,0-16.624,7.443-16.624,16.624v21.057c0,9.181,7.443,16.624,16.624,16.624
				s16.624-7.443,16.624-16.624v-21.057C210.561,250.494,203.118,243.05,193.937,243.05z"/>
			<path d="M256,243.05c-9.181,0-16.624,7.443-16.624,16.624v21.057c0,9.181,7.443,16.624,16.624,16.624s16.624-7.443,16.624-16.624
				v-21.057C272.624,250.494,265.181,243.05,256,243.05z"/>
			<path d="M318.063,243.05c-9.181,0-16.624,7.443-16.624,16.624v21.057c0,9.181,7.443,16.624,16.624,16.624
				c9.181,0,16.624-7.443,16.624-16.624v-21.057C334.688,250.494,327.244,243.05,318.063,243.05z"/>
			<path d="M193.937,325.063c-9.181,0-16.624,7.443-16.624,16.624v21.057c0,9.181,7.443,16.624,16.624,16.624
				s16.624-7.443,16.624-16.624v-21.057C210.561,332.506,203.118,325.063,193.937,325.063z"/>
			<path d="M256,325.063c-9.181,0-16.624,7.443-16.624,16.624v21.057c0,9.181,7.443,16.624,16.624,16.624
				s16.624-7.443,16.624-16.624v-21.057C272.624,332.506,265.181,325.063,256,325.063z"/>
			<path d="M318.063,325.063c-9.181,0-16.624,7.443-16.624,16.624v21.057c0,9.181,7.443,16.624,16.624,16.624
				c9.181,0,16.624-7.443,16.624-16.624v-21.057C334.688,332.506,327.244,325.063,318.063,325.063z"/>
			<path d="M275.304,39.867c-9,0-16.312,7.157-16.598,16.088h-5.414c-0.286-8.93-7.597-16.088-16.598-16.088
				c-9.181,0-16.624,7.443-16.624,16.624v34.473h0.001c0,9.181,7.443,16.624,16.624,16.624c9.181,0,16.624-7.443,16.624-16.624
				v-1.761h5.36v1.761c0,9.181,7.443,16.624,16.624,16.624c9.181,0,16.624-7.443,16.624-16.624V56.491
				C291.928,47.31,284.485,39.867,275.304,39.867z"/>
		</g>
	</g>
</g>
<g>
</g>
<g>
</g>
<g>
</g>
<g>
</g>
<g>
</g>
<g>
</g>
<g>
</g>
<g>
</g>
<g>
</g>
<g>
</g>
<g>
</g>
<g>
</g>
<g>
</g>
<g>
</g>
<g>
</g>
</svg>
